{"title":"Killers R5 LiNE XViD - IMAGiNE","uid":5675783,"size":1480859911,"categoryP":"other","categoryS":"other","magnet":"?xt=urn:btih:d2627ae0c3748bb966c8547542c8a942b33c52e5&amp;dn=Killers+R5+LiNE+XViD+-+IMAGiNE&amp;tr=udp%3A%2F%2Ftracker.openbittorrent.com%3A80&amp;tr=udp%3A%2F%2Fopen.demonii.com%3A1337&amp;tr=udp%3A%2F%2Ftracker.coppersurfer.tk%3A6969&amp;tr=udp%3A%2F%2Fexodus.desync.com%3A6969","seeders":0,"leechers":1,"uploader":"sceneline","files":4,"time":1278518696,"description":"*********** ****    ****      ***      ******** *********** ****    *** **********\n           *+*     +*+*+* *+*+*+   *+* *+*   *+*    *+*    *+*     *+*+*   *+* *+*        \n           +*+     +*+ +*+*+ +*+  +*+   +*+  +*+           +*+     *+*+*+  +*+ +*+        \n           +$+     +$+  +*+  +$+ +$++*++$++* *$*           +$+     +$+ +*+ +$+ +$++*++$  \n           +$+     +$+       +$+ +$+     +$+ +$+   +$+$    +$+     +$+  +$+$+$ +$+        \n           $+$     $+$       $+$ $+$     $+$ $+$    $+$    $+$     $+$   $+$+$ $+$        \n       $$$$$$$$$$$ $$$       $$$ $$$     $$$  $$$$$$$$ $$$$$$$$$$$ $$$    $$$$ $$$$$$$$$$     \n                                                \n\n\n\n                           Another Fine Release Brought to you from - IMAGiNE                   \n                                                 \n\n********************************************************************************************************************                                \n                                      Killers R5 LiNE XViD - IMAGiNE\n********************************************************************************************************************\n\nRipper ...........: IMAGiNE                                        IMDB Rating.......:3.2/10                             \nVideo Codec.......: XVID                                         Release Date......:07/06/10\nAudio Codec.......:MP3                                           Theatre Date......:04/06/10\nAudio Bitrate.....:128                                              Runtime.......:1h 36mn\nSubtitles.........:ENG WHEN NEEDED                Language..........:ENGLISH\nResolution...... 720 x 304                                     IMDb URL..........:http://www.imdb.com/title/tt1103153/\n\n\n[color=yellow]DETAILS:[/color]\n\nVideo\nID                               : 0\nFormat                           : MPEG-4 Visual\nFormat profile                   : Advanced Simple@L5\nFormat settings, BVOP            : Yes\nFormat settings, QPel            : No\nFormat settings, GMC             : No warppoints\nFormat settings, Matrix          : Default (MPEG)\nMuxing mode                      : Packed bitstream\nCodec ID                         : XVID\nCodec ID/Hint                    : XviD\nDuration                         : 1h 36mn\nBit rate                         : 1 897 Kbps\nWidth                            : 720 pixels\nHeight                           : 304 pixels\nDisplay aspect ratio             : 2.35\nFrame rate                       : 25.000 fps\nResolution                       : 24 bits\nColorimetry                      : 4:2:0\nScan type                        : Progressive\nBits/(Pixel*Frame)               : 0.347\nStream size                      : 1.28 GiB (100%)\nWriting library                  : XviD 1.2.1 (UTC 2008-12-04)\n\n\n\nAudio\nFormat                           : MPEG Audio\nFormat version                   : Version 1\nFormat profile                   : Layer 3\nDuration                         : 1h 36mn\nBit rate mode                    : Constant\nBit rate                         : 128 Kbps\nChannel(s)                       : 2 channels\nSampling rate                    : 44.1 KHz\nResolution                       : 16 bits\nStream size                      : 88.1 MiB (100%\n\n\n[color=yellow]NOTES:[/color]\n\nIMAGiNE bringing you another release.....Killers R5\n\nSources used was the russian dvd 9 and orcs audio....many thanks to both :)\nThe video was pretty nice for a R5 but had a few issues.....to us it seemed a little dark,tint of yellow to it and also \nthe sharpness is poor.\nAudio,really nice direct line....wish all line was this nice ;-)\nWork done,was firstly we ripped the dvd9 and used a few filters via a script and some plugins .....the main stuff we messed\nwith was the colouring and brightness.We increased the chroma slightly and brightness,also we used a white balance script\nand also added some sharpness to it.\nThe audio ....for this we synced the orcs audio to the rip and used the audio off the dvd9 for the end credits.\n\nEnjoy.\n\n\n[SCREENS] &lt;a href=&quot;\nhttp://imagine.takagari.com/killers%20r5/vlcsnap-217360.png&quot; rel=&quot;nofollow&quot; target=&quot;_NEW&quot;&gt;\nhttp://imagine.takagari.com/killers%20r5/vlcsnap-217360.png&lt;/a&gt; &lt;a href=&quot;\nhttp://imagine.takagari.com/killers%20r5/vlcsnap-219847.png&quot; rel=&quot;nofollow&quot; target=&quot;_NEW&quot;&gt;\nhttp://imagine.takagari.com/killers%20r5/vlcsnap-219847.png&lt;/a&gt; &lt;a href=&quot;\nhttp://imagine.takagari.com/killers%20r5/vlcsnap-220263.png&quot; rel=&quot;nofollow&quot; target=&quot;_NEW&quot;&gt;\nhttp://imagine.takagari.com/killers%20r5/vlcsnap-220263.png&lt;/a&gt; &lt;a href=&quot;\nhttp://imagine.takagari.com/killers%20r5/vlcsnap-220852.png&quot; rel=&quot;nofollow&quot; target=&quot;_NEW&quot;&gt;\nhttp://imagine.takagari.com/killers%20r5/vlcsnap-220852.png&lt;/a&gt; &lt;a href=&quot;\nhttp://imagine.takagari.com/killers%20r5/vlcsnap-222084.png&quot; rel=&quot;nofollow&quot; target=&quot;_NEW&quot;&gt;\nhttp://imagine.takagari.com/killers%20r5/vlcsnap-222084.png&lt;/a&gt; &lt;a href=&quot;\nhttp://imagine.takagari.com/killers%20r5/vlcsnap-222564.png&quot; rel=&quot;nofollow&quot; target=&quot;_NEW&quot;&gt;\nhttp://imagine.takagari.com/killers%20r5/vlcsnap-222564.png&lt;/a&gt; &lt;a href=&quot;\nhttp://imagine.takagari.com/killers%20r5/vlcsnap-222797.png&quot; rel=&quot;nofollow&quot; target=&quot;_NEW&quot;&gt;\nhttp://imagine.takagari.com/killers%20r5/vlcsnap-222797.png&lt;/a&gt;\n\n\n","torrent":{"xt":"urn:btih:d2627ae0c3748bb966c8547542c8a942b33c52e5","amp;dn":"Killers+R5+LiNE+XViD+-+IMAGiNE","amp;tr":["udp%3A%2F%2Ftracker.openbittorrent.com%3A80","udp%3A%2F%2Fopen.demonii.com%3A1337","udp%3A%2F%2Ftracker.coppersurfer.tk%3A6969","udp%3A%2F%2Fexodus.desync.com%3A6969"],"infoHash":"d2627ae0c3748bb966c8547542c8a942b33c52e5","infoHashBuffer":{"type":"Buffer","data":[210,98,122,224,195,116,139,185,102,200,84,117,66,200,169,66,179,60,82,229]},"announce":[],"urlList":[]}}